# xmcd
#
# Track frame offsets:
#	150
#	14307
#	26297
#	40395
#	51710
#	64587
#	78917
#	91520
#	104057
#	116585
#	139000
#	151100
#	164000
#	178672
#	189535
#	203180
#	217212
#	229517
#	241190
#	254820
#	268605
#	279610
#
# Disc length: 3851
#
# Revision: 1
# Processed by: cddbd v1.5.1PL0 Copyright (c) Steve Scherf et al.
# Submitted via: CDex 1.40Beta9
# Normalized: r0:DSETVAR1,TDELIM( - )
#
DISCID=3c0f0916
DTITLE=Various Artist - everyday i get the blues
DYEAR=1900
DGENRE=Blues
TTITLE0=Howlin' Wolf - Smokestack Lightning
TTITLE1=Little Walter - My Babe
TTITLE2=Sonny Boy Williamson - Help Me
TTITLE3=John Lee Hooker - Boom Boom
TTITLE4=Tommy Tucker - Hi-Heeled Sneakers
TTITLE5=Lowell Fulson - Reconsider Baby
TTITLE6=Jimmy Rogers - Walking by Myself
TTITLE7=Muddy Waters - I'm Your Hoochie Coochie Man
TTITLE8=Howlin' Wolf - Break of Day
TTITLE9=B.B. King - The Thrill is Gone
TTITLE10=Otis Spann - I'm Leaving You
TTITLE11=Willie Mabon - Seventh Son
TTITLE12=Bobby Bland - Stormy Monday Blues
TTITLE13=Little Walter - Just Your Fool
TTITLE14=Elmore James - Dust My Broom
TTITLE15=Henry Gray - I Declare That Ain't Right
TTITLE16=John Lee Hooker - I'm In The Mood
TTITLE17=Sonny Boy Williamson - Dont't Start Me Talkin'
TTITLE18=Alber King - Bad Luck Blues
TTITLE19=Muddy Waters - I'm Ready
TTITLE20=Howlin' Wolf - Little Red Rooster
TTITLE21=Jimmy Rogers - If It Ain't Me (who Are You Thinking Of ?)
EXTD=ID3G: 0
EXTT0=
EXTT1=
EXTT2=
EXTT3=
EXTT4=
EXTT5=
EXTT6=
EXTT7=
EXTT8=
EXTT9=
EXTT10=
EXTT11=
EXTT12=
EXTT13=
EXTT14=
EXTT15=
EXTT16=
EXTT17=
EXTT18=
EXTT19=
EXTT20=
EXTT21=
PLAYORDER=
